<svg xmlns="http://www.w3.org/2000/svg" width="512" height="512" viewBox="0 0 100 100" role="img" aria-labelledby="title desc">
  <title id="title">Veto logo</title>
  <desc id="desc">Two open admission brackets frame a decisive check mark.</desc>
  <defs>
    <linearGradient id="decision" x1="34" y1="61" x2="68" y2="35" gradientUnits="userSpaceOnUse">
      <stop offset="0" stop-color="#3de7ff"/>
      <stop offset="1" stop-color="#ffb84a"/>
    </linearGradient>
  </defs>
  <rect x="3" y="3" width="94" height="94" rx="22" fill="#071014"/>
  <rect x="3.5" y="3.5" width="93" height="93" rx="21.5" fill="none" stroke="#193a45"/>
  <g fill="none" stroke-linecap="round" stroke-linejoin="round">
    <path d="M34 24H25a6 6 0 0 0-6 6v40a6 6 0 0 0 6 6h9" stroke="#3de7ff" stroke-width="4" opacity=".42"/>
    <path d="M66 24h9a6 6 0 0 1 6 6v40a6 6 0 0 1-6 6h-9" stroke="#3de7ff" stroke-width="4" opacity=".42"/>
    <path d="m34 50 11 11 22-25" stroke="url(#decision)" stroke-width="7"/>
  </g>
</svg>
